<svg width="110" height="93" viewBox="0 0 110 93" fill="none" xmlns="http://www.w3.org/2000/svg">
<rect x="9.68547" y="61.2131" width="11.0746" height="19.0714" rx="5.53731" fill="#005840"/>
<rect x="28.8312" y="41.3472" width="11.0746" height="38.9375" rx="5.53731" fill="#005840"/>
<rect x="47.9772" y="25.4542" width="11.0746" height="54.8304" rx="5.53731" fill="#005840"/>
<rect x="84.6418" y="81.8739" width="8.74107" height="84.6418" rx="4.37054" transform="rotate(90 84.6418 81.8739)" fill="#005840"/>
<path d="M70.5915 83.4632V20.8113M70.5915 20.8113C70.4021 14.3052 66.1817 1.89529 50.8154 4.30498C51.4216 10.53 56.2254 22.5463 70.5915 20.8113Z" stroke="#005840" stroke-width="8" stroke-linecap="round" stroke-linejoin="round"/>
<path d="M70.8394 37.3839V39.2037C101.563 44.6628 106.991 22.5229 105.865 10.7706C80.998 5.31148 72.1534 21.3856 70.8394 30.1051V37.3839ZM70.8394 37.3839C73.5424 32.9863 78.9483 26.3519 88.5211 23.2812" stroke="#005840" stroke-width="8" stroke-linecap="round" stroke-linejoin="round"/>
</svg>
